<?xml version="1.0" standalone="no"?>
<!DOCTYPE svg PUBLIC "-//W3C//DTD SVG 20010904//EN"
 "http://www.w3.org/TR/2001/REC-SVG-20010904/DTD/svg10.dtd">
<svg version="1.0" xmlns="http://www.w3.org/2000/svg"
 width="1228.000000pt" height="1280.000000pt" viewBox="0 0 1228.000000 1280.000000"
 preserveAspectRatio="xMidYMid meet">
<metadata>
Created by potrace 1.15, written by Peter Selinger 2001-2017
</metadata>
<g transform="translate(0.000000,1280.000000) scale(0.100000,-0.100000)"
fill="#000000" stroke="none">
<path d="M5885 12790 c-1294 -72 -2483 -369 -3385 -847 l-125 -67 80 -13 c469
-79 818 -332 940 -682 46 -130 57 -206 58 -371 0 -127 -3 -171 -22 -245 -84
-342 -339 -564 -752 -657 -91 -20 -129 -23 -309 -22 -187 1 -214 3 -301 26
-98 27 -205 74 -228 102 -8 9 -18 16 -23 16 -17 0 76 -124 148 -195 196 -195
508 -348 856 -419 283 -58 279 -58 1408 -66 1032 -8 1112 -11 1340 -46 392
-60 735 -209 1001 -437 322 -276 504 -745 549 -1415 26 -399 -10 -1018 -93
-1581 -1 -8 38 -37 93 -68 249 -144 469 -311 671 -513 223 -223 359 -410 484
-665 76 -155 118 -270 160 -434 52 -206 59 -273 59 -511 0 -197 -3 -238 -23
-330 -62 -287 -211 -521 -401 -633 -206 -120 -420 -115 -851 19 -272 84 -386
117 -529 154 -326 83 -727 139 -1121 156 l-156 7 -198 -138 c-810 -563 -1696
-1076 -2420 -1403 -299 -135 -396 -159 -603 -149 -245 11 -421 105 -520 280
-89 155 -78 291 31 401 61 61 127 95 352 182 743 287 1806 779 2177 1007 554
342 976 850 1223 1475 267 677 343 1592 195 2332 -137 684 -478 1164 -982
1382 -187 81 -288 97 -1003 158 -253 22 -513 48 -577 60 -252 44 -559 135
-797 237 -674 288 -1151 737 -1376 1297 -19 50 -37 92 -40 94 -14 15 -192
-388 -288 -653 -304 -843 -486 -1804 -564 -2975 -24 -370 -24 -1326 0 -1686
68 -1011 209 -1778 462 -2522 262 -773 661 -1449 1108 -1879 284 -274 737
-457 1312 -530 194 -24 667 -24 880 1 1216 141 2441 694 3795 1711 1550 1165
2833 2628 3716 4239 311 566 536 1088 742 1716 255 779 301 1345 170 2058 -17
94 -23 112 -37 108 -37 -12 -256 -47 -391 -63 -203 -24 -666 -24 -875 1 -601
70 -1163 269 -1347 475 -197 221 -20 481 445 655 301 113 682 169 1154 170
l282 1 -42 43 c-101 104 -330 284 -547 429 -1010 675 -2340 1089 -3885 1208
-239 19 -856 27 -1080 15z m383 -2020 c315 -51 581 -305 647 -618 64 -299 -76
-603 -335 -731 -114 -56 -207 -74 -340 -68 -316 15 -602 234 -706 540 -36 109
-45 282 -19 390 44 182 175 348 336 425 46 22 109 45 139 51 30 6 64 13 75 15
40 8 142 6 203 -4z"/>
<path d="M2270 11611 c-298 -42 -540 -256 -621 -548 -28 -98 -30 -265 -6 -365
68 -278 289 -494 572 -559 71 -16 229 -16 305 1 258 55 471 242 555 489 122
360 -38 741 -383 915 -108 55 -296 84 -422 67z"/>
<path d="M11249 10900 c-782 -30 -1381 -195 -1424 -392 -36 -161 329 -333 875
-412 388 -56 891 -65 1259 -22 68 8 125 17 128 20 13 13 -118 284 -221 456
-52 88 -209 302 -242 331 -26 23 -128 28 -375 19z"/>
<path d="M6631 4758 c-39 -101 -62 -151 -130 -287 -122 -244 -328 -579 -498
-809 -30 -41 -53 -75 -51 -77 2 -2 96 -9 209 -15 231 -11 363 -26 656 -70 321
-48 425 -39 486 41 41 55 52 110 50 264 -1 108 -6 158 -22 220 -27 102 -105
261 -170 346 -103 135 -309 308 -458 383 -63 31 -61 31 -72 4z"/>
</g>
</svg>
